<?xml version="1.0" encoding="utf-8"?>
<!-- Generator: Adobe Illustrator 22.0.1, SVG Export Plug-In . SVG Version: 6.00 Build 0)  -->
<!DOCTYPE svg PUBLIC "-//W3C//DTD SVG 1.1//EN" "http://www.w3.org/Graphics/SVG/1.1/DTD/svg11.dtd">
<svg version="1.1" xmlns="http://www.w3.org/2000/svg" xmlns:xlink="http://www.w3.org/1999/xlink" x="0px" y="0px"
	 viewBox="0 0 250 60" style="enable-background:new 0 0 250 60;" xml:space="preserve">
<style type="text/css">
	.st0{fill:none;}
	.st1{fill:#6B6A68;}
	.st2{fill:#F8F7F1;}
	.st3{fill:#FFDD55;}
	.st4{fill:#FDC046;}
	.st5{fill:#49BEAA;}
	.st6{fill:#014256;}
	.st7{fill:#FFFFFF;}
	.st8{fill:url(#SVGID_1_);}
	.st9{opacity:0.51;}
	.st10{fill:url(#SVGID_2_);}
	.st11{fill:#6DCBBB;}
	.st12{opacity:0.34;}
	.st13{fill:#3F4C49;}
	.st14{opacity:0.6;fill:#A2FFEF;}
	.st15{fill:#346878;}
	.st16{fill:none;stroke:#49BEAA;stroke-width:5;stroke-miterlimit:10;}
	.st17{fill:#F9F9F4;}
	.st18{fill:none;stroke:#F8F7F1;stroke-width:3;stroke-miterlimit:10;}
	.st19{fill:#FFE477;}
	.st20{fill:none;stroke:#FFE477;stroke-width:0.904;stroke-miterlimit:10;}
	.st21{fill:#AEC3C9;}
	.st22{fill:none;stroke:#000000;stroke-miterlimit:10;}
	.st23{fill:#7C6D62;}
	.st24{fill:url(#SVGID_13_);}
	.st25{fill:url(#SVGID_14_);}
	.st26{fill:url(#SVGID_15_);}
	.st27{fill:url(#SVGID_16_);}
	.st28{fill:url(#SVGID_17_);}
	.st29{fill:url(#SVGID_18_);}
	.st30{fill:url(#SVGID_19_);}
	.st31{fill:url(#SVGID_20_);}
	.st32{fill:url(#SVGID_21_);}
	.st33{fill:url(#SVGID_22_);}
	.st34{fill:url(#SVGID_23_);}
	.st35{fill:url(#SVGID_24_);}
	.st36{fill:url(#SVGID_25_);}
	.st37{fill:url(#SVGID_26_);}
	.st38{fill:url(#SVGID_27_);}
	.st39{fill:url(#SVGID_28_);}
	.st40{fill:#7C6D62;stroke:#000000;stroke-width:0.75;stroke-miterlimit:10;}
</style>
<g id="background">
</g>
<g id="footer_x2F_header">
</g>
<g id="Layer_4">
</g>
<g id="TYPE">
</g>
<g id="Layer_1">
	<g>
		<g>
			<linearGradient id="SVGID_1_" gradientUnits="userSpaceOnUse" x1="25.7205" y1="-1.7387" x2="280.4159" y2="51.2379">
				<stop  offset="3.766026e-03" style="stop-color:#FDC046"/>
				<stop  offset="0.3958" style="stop-color:#49BEAA"/>
				<stop  offset="1" style="stop-color:#207264"/>
			</linearGradient>
			<path class="st8" d="M193.7,23c0.8,0,1.6,0,2.3,0c0.3-1.9,0.5-3.7,0.8-5.6c-3.9,0-7.8,0-11.7,0c-0.3,1.9-0.5,3.7-0.8,5.6
				c0.8,0,1.5,0,2.3,0c-0.2,1.6-0.4,3.1-0.7,4.5c-3.4,0-6.6,0-10,0c0.1-1,0.3-1.9,0.4-2.8c0.2-1.7,0.2-1.7,2-1.8
				c0.2,0,0.6-0.2,0.7-0.4c0.3-1.7,0.5-3.4,0.7-5.2c-3.8,0-7.5,0-11.2,0c-0.2,0-0.5,0.2-0.5,0.4c-0.3,1.7-0.5,3.4-0.7,5.3
				c0.8,0,1.5,0,2.3,0c-0.7,5-1.4,9.9-2.1,14.9c-0.8,0-1.6,0-2.3,0c-0.3,1.9-0.5,3.7-0.8,5.5c4,0,7.8,0,11.7,0
				c0.3-1.9,0.5-3.7,0.8-5.6c-0.8,0-1.5,0-2.3,0c0.2-1.6,0.5-3,0.7-4.5c3.4,0,6.7,0,10,0c-0.2,1.5-0.4,3-0.6,4.5c-0.8,0-1.5,0-2.3,0
				c-0.3,1.9-0.5,3.7-0.8,5.5c3.9,0,7.8,0,11.7,0c0.3-1.9,0.5-3.7,0.8-5.5c-0.8,0-1.5,0-2.3,0C192.3,32.9,193,28,193.7,23z"/>
			<linearGradient id="SVGID_2_" gradientUnits="userSpaceOnUse" x1="22.01" y1="16.1003" x2="276.7054" y2="69.0769">
				<stop  offset="3.766026e-03" style="stop-color:#FDC046"/>
				<stop  offset="0.3958" style="stop-color:#49BEAA"/>
				<stop  offset="1" style="stop-color:#207264"/>
			</linearGradient>
			<path class="st10" d="M105.2,26.5c-0.2,0-0.4,0.3-0.4,0.6c-0.2,0.9-0.3,1.8-0.4,2.8c-0.1,0.4-0.1,1-0.3,1.3
				c-0.7,0.8-1.6,1.5-2.4,2.2c0.8-5.4,1.5-10.8,2.3-16.3c-3,0-6,0-8.9,0c-0.2,1.8-0.5,3.7-0.7,5.5c0.8,0,1.5,0,2.3,0
				c-0.7,5.2-1.4,10.2-2.2,15.4c-0.7,0-1.4,0-2,0c0,0,0,0,0,0c-0.8,0-1.5,0-2.3,0c0.3-2,0.6-3.9,0.9-5.9c0.8,0,1.5,0,2.2,0
				c0.3-1.9,0.5-3.7,0.8-5.6c-2.2,0-4.2,0-6.3,0c-1.4,0-1.4,0-1.6,1.3c0,0.2-0.1,0.4-0.2,0.8c-0.8-1.2-1.8-1.9-3.1-2.2
				c-2.7-0.6-5.2-0.2-7.4,1.6c-3.1,2.7-4,6.2-3.3,10.1c0.7,3.9,3.6,6.1,7.5,5.8c1.6-0.1,3.1-0.6,4.4-1.7c0,0.5-0.1,0.9-0.1,1.4
				c2.6,0,5.2,0,7.8,0c0,0,0,0,0,0c2.9,0,5.8,0,8.6,0c0.3-1.9,0.5-3.8,0.8-5.7c1.1,1.7,2,3.4,2.9,5.1c0.1,0.2,0.4,0.6,0.6,0.6
				c2.4,0,4.7,0,7.1,0c0.3-1.9,0.5-3.7,0.8-5.6c-1.2,0-2.4,0.3-3.2-0.1c-0.8-0.4-1.2-1.6-1.7-2.5c0,0,0-0.1-0.1-0.2
				c0.5-0.5,1.2-1,1.7-1.5c1-1.1,2.1-1.9,3.6-1.6c0,0,0.1-0.1,0.2-0.1c0.3-1.8,0.5-3.6,0.8-5.5C110.8,26.4,108,26.4,105.2,26.5z
				 M80.4,37.9c-0.4-0.1-0.8-0.3-1.1-0.6c-0.9-0.9-1-2.7-0.2-4c0.7-1.2,2.1-1.7,3.4-1.3c1.1,0.3,1.7,1.2,1.7,2.6
				C84.1,37,82.4,38.5,80.4,37.9z"/>
			<linearGradient id="SVGID_4_" gradientUnits="userSpaceOnUse" x1="26.8759" y1="-7.2932" x2="281.5712" y2="45.6834">
				<stop  offset="3.766026e-03" style="stop-color:#FDC046"/>
				<stop  offset="0.3958" style="stop-color:#49BEAA"/>
				<stop  offset="1" style="stop-color:#207264"/>
			</linearGradient>
			<path style="fill:url(#SVGID_4_);" d="M220.2,26.5c-0.2,1.3-0.4,2.6-0.6,3.9c-0.1,0.7-1.7,2.4-2.6,2.9c0.8-5.4,1.5-10.9,2.3-16.3
				c-3,0-5.9,0-8.9,0c-0.3,1.8-0.5,3.6-0.8,5.6c0.8,0,1.5,0,2.3,0c-0.7,5.2-1.4,10.2-2.2,15.4c-0.8,0-1.4,0-2.1,0c0,0,0,0,0-0.1
				c-0.8,0-1.5,0-2.3,0c0.5-3.9,1.1-7.6,1.6-11.5c-2.7,0-5.2,0-7.7,0c-1.3,0-1.3,0-1.5,1.2c-0.2,1.4-0.4,2.9-0.6,4.4
				c0.8,0,1.5,0,2.3,0c-0.3,2-0.6,3.9-0.9,5.9c-0.8,0-1.5,0-2.3,0c-0.3,1.9-0.5,3.7-0.8,5.6c3.8,0,7.6,0,11.4,0c0,0,0,0,0,0
				c3,0,5.8,0,8.7,0c0.3-1.9,0.5-3.8,0.8-5.9c0.3,0.5,0.4,0.8,0.6,1.1c0.8,1.4,1.5,2.9,2.3,4.3c0.1,0.2,0.4,0.5,0.6,0.5
				c2.3,0,4.7,0,7,0c0.3-1.9,0.5-3.7,0.8-5.6c-1,0-1.9,0-2.8,0c-0.3,0-0.6-0.2-0.8-0.4c-0.5-0.7-0.9-1.5-1.4-2.3
				c0.6-0.5,1.2-1,1.8-1.6c1-1.1,2.1-1.8,3.6-1.5c0,0,0.1,0,0.2-0.1c0.3-1.8,0.5-3.6,0.8-5.4C226.1,26.5,223.2,26.5,220.2,26.5z"/>
			<linearGradient id="SVGID_6_" gradientUnits="userSpaceOnUse" x1="21.0423" y1="20.753" x2="275.7376" y2="73.7296">
				<stop  offset="3.766026e-03" style="stop-color:#FDC046"/>
				<stop  offset="0.3958" style="stop-color:#49BEAA"/>
				<stop  offset="1" style="stop-color:#207264"/>
			</linearGradient>
			<path style="fill:url(#SVGID_6_);" d="M76.6,25.4c0.2,0,0.5-0.4,0.5-0.6c0.4-2.4,0.7-4.8,1-7.4c-0.4,0-0.7,0-1,0
				c-3.7,0-7.5,0-11.2,0c-3.5,0-6.9,0-10.4,0c-0.6,0-0.8,0.2-0.8,0.7c-0.1,0.7-0.2,1.5-0.3,2.2c-0.2,1.7-0.5,3.4-0.7,5.1
				c1.9,0,3.8,0,5.6,0c0.1-0.8,0.2-1.6,0.4-2.4c0.8,0,1.6,0,2.4,0c-0.7,5-1.4,10-2.1,15c-0.7,0-1.2,0-1.8,0c-0.2,0-0.6,0.3-0.6,0.5
				c-0.3,1.7-0.5,3.3-0.7,5c3.9,0,7.8,0,11.7,0c0.3-1.8,0.5-3.6,0.8-5.5c-0.8,0-1.5,0-2.3,0c0.7-5.1,1.4-10,2.1-15
				c0.9,0,1.7,0,2.5,0c-0.1,0.8-0.2,1.6-0.3,2.4C73.2,25.4,74.9,25.4,76.6,25.4z"/>
			<linearGradient id="SVGID_8_" gradientUnits="userSpaceOnUse" x1="23.5308" y1="8.7889" x2="278.2261" y2="61.7656">
				<stop  offset="3.766026e-03" style="stop-color:#FDC046"/>
				<stop  offset="0.3958" style="stop-color:#49BEAA"/>
				<stop  offset="1" style="stop-color:#207264"/>
			</linearGradient>
			<path style="fill:url(#SVGID_8_);" d="M150.3,27.8c0,0.2-0.1,0.4-0.2,0.8c-0.8-1.2-1.8-1.9-3.1-2.2c-2.7-0.6-5.2-0.2-7.4,1.6
				c-3.1,2.7-4,6.2-3.3,10.1c0.7,3.9,3.6,6.1,7.5,5.8c1.6-0.1,3.1-0.6,4.4-1.7c0,0.5-0.1,0.9-0.1,1.4c2.6,0,5.2,0,7.8,0
				c0.3-1.9,0.5-3.7,0.8-5.6c-0.8,0-1.5,0-2.3,0c0.3-2,0.6-3.9,0.9-5.9c0.8,0,1.5,0,2.2,0c0.3-1.9,0.5-3.7,0.8-5.6
				c-2.2,0-4.2,0-6.3,0C150.6,26.4,150.6,26.4,150.3,27.8z M144.6,37.9c-0.4-0.1-0.8-0.3-1.1-0.6c-0.9-0.9-1-2.7-0.2-4
				c0.7-1.2,2.1-1.7,3.4-1.3c1.1,0.3,1.7,1.2,1.7,2.6C148.4,37,146.7,38.5,144.6,37.9z"/>
			<linearGradient id="SVGID_10_" gradientUnits="userSpaceOnUse" x1="27.1869" y1="-8.7888" x2="281.8823" y2="44.1879">
				<stop  offset="3.766026e-03" style="stop-color:#FDC046"/>
				<stop  offset="0.3958" style="stop-color:#49BEAA"/>
				<stop  offset="1" style="stop-color:#207264"/>
			</linearGradient>
			<path style="fill:url(#SVGID_10_);" d="M245.9,32.1c-0.3-2.8-2.2-5-4.9-5.7c-6.7-1.8-12.6,3-12.3,9.9c0.1,3.9,2.2,6.5,6,7.3
				c2.7,0.5,5.3,0.3,7.9-0.8c0.6-0.2,1.1-0.6,1.7-0.9c-0.8-1.5-1.5-2.9-2.2-4.3c-1.6,0.9-3.2,1.4-5,1c-1.1-0.2-1.7-0.9-1.8-2.1
				c0.3,0,0.6,0,0.9,0c2.9,0,5.9,0,8.8,0c0.6,0,0.9-0.1,0.9-0.8C245.8,34.6,246,33.3,245.9,32.1z M235.5,33c0.2-1.2,1.3-2.1,2.6-1.9
				c1.1,0.1,1.7,0.8,1.7,1.9C238.4,33,236.9,33,235.5,33z"/>
			<linearGradient id="SVGID_12_" gradientUnits="userSpaceOnUse" x1="22.402" y1="14.2159" x2="277.0973" y2="67.1925">
				<stop  offset="3.766026e-03" style="stop-color:#FDC046"/>
				<stop  offset="0.3958" style="stop-color:#49BEAA"/>
				<stop  offset="1" style="stop-color:#207264"/>
			</linearGradient>
			<path style="fill:url(#SVGID_12_);" d="M125.6,26.4c-6.7-1.8-12.6,3-12.3,9.9c0.1,4,2.4,6.6,6.2,7.3c2.2,0.4,4.3,0.3,6.4-0.4
				c1-0.3,2-0.8,3-1.3c-0.8-1.6-1.5-3-2.3-4.4c-1.6,0.9-3.2,1.4-5,1c-1.1-0.2-1.7-0.9-1.8-2.1c0.3,0,0.6,0,0.9,0c2.9,0,5.9,0,8.8,0
				c0.6,0,0.9-0.2,0.9-0.8c0-1.2,0.2-2.5,0.1-3.7C130.3,29.3,128.4,27.1,125.6,26.4z M120.2,33c0.1-1.1,1.2-2,2.5-2
				c1.1,0.1,1.8,0.8,1.8,2C123,33,121.6,33,120.2,33z"/>
			<linearGradient id="SVGID_13_" gradientUnits="userSpaceOnUse" x1="28.7493" y1="-16.3002" x2="283.4446" y2="36.6764">
				<stop  offset="3.766026e-03" style="stop-color:#FDC046"/>
				<stop  offset="0.3958" style="stop-color:#49BEAA"/>
				<stop  offset="1" style="stop-color:#207264"/>
			</linearGradient>
			<path class="st24" d="M203.5,24.1c2.6,0,4.2-1.7,4.2-4.2c0-2.3-1.5-3.8-3.7-3.8c-2.5,0-4.3,1.8-4.3,4.3
				C199.7,22.7,201.2,24.1,203.5,24.1z"/>
		</g>
		<linearGradient id="SVGID_14_" gradientUnits="userSpaceOnUse" x1="16.9882" y1="40.2439" x2="271.6835" y2="93.2205">
			<stop  offset="3.766026e-03" style="stop-color:#FDC046"/>
			<stop  offset="0.3958" style="stop-color:#49BEAA"/>
			<stop  offset="1" style="stop-color:#207264"/>
		</linearGradient>
		<path class="st25" d="M46.2,49.4l-4.9-16.6c-0.2-0.5-0.7-0.9-1.2-0.9h-7.5c-0.7,0-1.3,0.6-1.3,1.3c0,0.7,0.6,1.3,1.3,1.3h6.5
			l4.1,14.1H7.1l4.1-14.1h6.3c0.7,0,1.3-0.6,1.3-1.3c0-0.7-0.6-1.3-1.3-1.3h-7.2c-0.6,0-1.1,0.4-1.2,0.9L4.1,49.4
			c-0.1,0.4,0,0.8,0.2,1.1c0.2,0.3,0.6,0.5,1,0.5H45c0.4,0,0.8-0.2,1-0.5C46.2,50.2,46.3,49.8,46.2,49.4z"/>
		<linearGradient id="SVGID_15_" gradientUnits="userSpaceOnUse" x1="21.2537" y1="19.7365" x2="275.949" y2="72.7131">
			<stop  offset="3.766026e-03" style="stop-color:#FDC046"/>
			<stop  offset="0.3958" style="stop-color:#49BEAA"/>
			<stop  offset="1" style="stop-color:#207264"/>
		</linearGradient>
		<path class="st26" d="M29.5,24.7c1.1-1.1,1.7-2.6,1.7-4.2c0-1.6-0.6-3-1.7-4.2s-2.6-1.7-4.2-1.7c-1.6,0-3,0.6-4.2,1.7
			c-1.1,1.1-1.7,2.6-1.7,4.2s0.6,3,1.7,4.2h0c1.1,1.1,2.6,1.7,4.2,1.7C26.9,26.5,28.4,25.9,29.5,24.7z M23,22.9
			c-0.6-0.6-1-1.5-1-2.3c0-0.9,0.3-1.7,1-2.3c0.6-0.6,1.5-1,2.3-1s1.7,0.3,2.3,1c0.6,0.6,1,1.5,1,2.3c0,0.9-0.3,1.7-1,2.3
			C26.4,24.2,24.2,24.2,23,22.9z"/>
		<linearGradient id="SVGID_16_" gradientUnits="userSpaceOnUse" x1="20.8504" y1="21.6753" x2="275.5457" y2="74.6519">
			<stop  offset="3.766026e-03" style="stop-color:#FDC046"/>
			<stop  offset="0.3958" style="stop-color:#49BEAA"/>
			<stop  offset="1" style="stop-color:#207264"/>
		</linearGradient>
		<path class="st27" d="M24.6,36.2c0.2,0.2,0.5,0.3,0.8,0.3c0.3,0,0.6-0.1,0.8-0.3c0.4-0.3,9.8-7.6,10.5-15.7c0.2-3-0.8-5.8-3-8.1
			c-2.1-2.2-5-3.4-8.2-3.4s-6.1,1.2-8.2,3.4c-2.2,2.4-3.3,5.1-3,8.1C14.7,28.6,24.2,35.9,24.6,36.2z M19,14.2
			c1.6-1.7,3.9-2.6,6.4-2.6c2.5,0,4.8,0.9,6.4,2.6c1.7,1.8,2.5,3.9,2.3,6.2c-0.4,5.7-6.4,11.3-8.7,13.2c-2.3-1.9-8.3-7.6-8.7-13.2
			C16.5,18,17.2,16,19,14.2z"/>
		<linearGradient id="SVGID_17_" gradientUnits="userSpaceOnUse" x1="18.0787" y1="35.001" x2="272.774" y2="87.9776">
			<stop  offset="3.766026e-03" style="stop-color:#FDC046"/>
			<stop  offset="0.3958" style="stop-color:#49BEAA"/>
			<stop  offset="1" style="stop-color:#207264"/>
		</linearGradient>
		<path class="st28" d="M32.2,40c0,0.3,0.1,0.7,0.4,0.9c0.5,0.5,1.3,0.5,1.8,0l0.6-0.6l0.6,0.6c0.2,0.2,0.6,0.4,0.9,0.4
			c0.3,0,0.7-0.1,0.9-0.4c0.2-0.2,0.4-0.6,0.4-0.9c0-0.3-0.1-0.7-0.4-0.9l-0.6-0.6l0.6-0.6c0.2-0.2,0.4-0.6,0.4-0.9
			c0-0.3-0.1-0.7-0.4-0.9c-0.5-0.5-1.3-0.5-1.8,0l-0.6,0.6l-0.6-0.6c-0.5-0.5-1.3-0.5-1.8,0c-0.2,0.2-0.4,0.6-0.4,0.9
			c0,0.3,0.1,0.7,0.4,0.9l0.6,0.6l-0.6,0.6C32.3,39.3,32.2,39.6,32.2,40z"/>
		<linearGradient id="SVGID_18_" gradientUnits="userSpaceOnUse" x1="16.5223" y1="42.4838" x2="271.2176" y2="95.4604">
			<stop  offset="3.766026e-03" style="stop-color:#FDC046"/>
			<stop  offset="0.3958" style="stop-color:#49BEAA"/>
			<stop  offset="1" style="stop-color:#207264"/>
		</linearGradient>
		<path class="st29" d="M27.1,43.4c-0.8-0.2-1.6-0.4-2.4-0.6l-0.1,0c-0.3-0.1-0.7,0-1,0.1c-0.3,0.2-0.5,0.5-0.6,0.8
			c-0.2,0.7,0.2,1.4,0.9,1.6l0.3,0.1c0.8,0.2,1.6,0.4,2.3,0.6c0.1,0,0.2,0,0.3,0c0.6,0,1.1-0.4,1.2-1c0.1-0.3,0-0.7-0.2-1
			C27.7,43.7,27.4,43.5,27.1,43.4z"/>
		<linearGradient id="SVGID_19_" gradientUnits="userSpaceOnUse" x1="16.2696" y1="43.6985" x2="270.9649" y2="96.6751">
			<stop  offset="3.766026e-03" style="stop-color:#FDC046"/>
			<stop  offset="0.3958" style="stop-color:#49BEAA"/>
			<stop  offset="1" style="stop-color:#207264"/>
		</linearGradient>
		<path class="st30" d="M11.9,44.4c0.6-0.2,1.3-0.4,2.2-0.4c0.7,0,1.3-0.6,1.2-1.3c0-0.3-0.2-0.7-0.4-0.9c-0.2-0.2-0.6-0.4-0.9-0.3
			c-1.2,0-2.1,0.2-3,0.6v0c-0.7,0.3-1,1-0.7,1.7c0.2,0.5,0.7,0.8,1.2,0.8C11.6,44.5,11.7,44.4,11.9,44.4z"/>
		<linearGradient id="SVGID_20_" gradientUnits="userSpaceOnUse" x1="16.7609" y1="41.3364" x2="271.4562" y2="94.3131">
			<stop  offset="3.766026e-03" style="stop-color:#FDC046"/>
			<stop  offset="0.3958" style="stop-color:#49BEAA"/>
			<stop  offset="1" style="stop-color:#207264"/>
		</linearGradient>
		<path class="st31" d="M33.3,43.1c-0.5,0.3-1.3,0.5-2.2,0.6c-0.3,0.1-0.6,0.2-0.8,0.5c-0.2,0.3-0.3,0.6-0.2,1
			c0.1,0.7,0.8,1.2,1.5,1.1c0.6-0.1,1.2-0.2,1.7-0.4c0.4-0.1,0.9-0.3,1.2-0.5c0.6-0.3,0.9-1.1,0.6-1.7
			C34.7,43.1,33.9,42.8,33.3,43.1L33.3,43.1z"/>
		<linearGradient id="SVGID_21_" gradientUnits="userSpaceOnUse" x1="16.4997" y1="42.5924" x2="271.195" y2="95.569">
			<stop  offset="3.766026e-03" style="stop-color:#FDC046"/>
			<stop  offset="0.3958" style="stop-color:#49BEAA"/>
			<stop  offset="1" style="stop-color:#207264"/>
		</linearGradient>
		<path class="st32" d="M18,41.6L18,41.6c-0.7-0.1-1.4,0.4-1.5,1.1c-0.1,0.7,0.4,1.4,1.1,1.5c0.7,0.1,1.6,0.3,2.5,0.5
			c0.1,0,0.2,0,0.3,0c0.6,0,1.1-0.4,1.2-1c0.2-0.7-0.3-1.4-1-1.5C19.7,41.9,18.8,41.7,18,41.6z"/>
	</g>
</g>
</svg>
